<svg width="63" height="63" viewBox="0 0 63 63" fill="none" xmlns="http://www.w3.org/2000/svg">
<path fill-rule="evenodd" clip-rule="evenodd" d="M44.9711 29.5312H24.2727L32.3323 21.42C33.0948 20.6522 33.0948 19.3921 32.3323 18.6243C31.5678 17.8565 30.3301 17.8565 29.5656 18.6243L18.5046 29.7675C18.0373 30.24 17.8907 30.8897 17.9982 31.5C17.8907 32.1103 18.0373 32.76 18.5046 33.2325L29.5656 44.3757C30.3301 45.1435 31.5678 45.1435 32.3323 44.3757C33.0948 43.5882 33.0948 42.3478 32.3323 41.58L24.2727 33.4688H44.9711C46.0504 33.4688 46.9264 32.5828 46.9264 31.5C46.9264 30.4172 46.0504 29.5312 44.9711 29.5312ZM31.2842 63C14.0075 63 0 48.9038 0 31.5C0 14.0962 14.0075 0 31.2842 0C48.561 0 62.5685 14.0962 62.5685 31.5C62.5685 48.9038 48.561 63 31.2842 63Z" fill="#282828"/>
</svg>
