<svg width="16" height="22" viewBox="0 0 16 22" fill="none" xmlns="http://www.w3.org/2000/svg">
<path d="M4.55811 16.2971C5.19438 17.108 5.77347 17.9621 6.29119 18.8533C6.73321 19.6915 6.91747 20.2598 7.24055 21.2698C7.43864 21.8277 7.6177 21.9942 8.00264 21.9942C8.42218 21.9942 8.61249 21.7109 8.75954 21.2728C9.06489 20.3191 9.30451 19.5912 9.68252 18.9035C10.4243 17.5757 11.346 16.3958 12.2517 15.2617C12.4969 14.9408 14.082 13.071 14.7957 11.5957C14.7957 11.5957 15.6728 9.9751 15.6728 7.71176C15.6728 5.5946 14.8078 4.12622 14.8078 4.12622L12.3174 4.79316L10.8049 8.7766L10.4308 9.32589L10.3559 9.42537L10.2565 9.54994L10.0817 9.74889L9.83217 9.99845L8.48533 11.0957L5.11821 13.0399L4.55811 16.2971Z" fill="#34A853"/>
<path d="M1.08301 11.3232C1.90478 13.2003 3.48951 14.8504 4.56171 16.2984L10.2566 9.55251C10.2566 9.55251 9.4543 10.6018 7.9989 10.6018C6.37784 10.6018 5.06819 9.30728 5.06819 7.67497C5.06819 6.55563 5.74161 5.78662 5.74161 5.78662L1.8758 6.82249L1.08301 11.3232Z" fill="#FBBC04"/>
<path d="M10.3201 0.346924C12.2115 0.956768 13.8304 2.23701 14.8096 4.12493L10.2582 9.54864C10.2582 9.54864 10.9316 8.76579 10.9316 7.65337C10.9316 5.983 9.52512 4.7352 8.0057 4.7352C6.56889 4.7352 5.74365 5.78275 5.74365 5.78275V2.3659L10.3201 0.346924Z" fill="#4285F4"/>
<path d="M2.12622 2.74343C3.25595 1.39183 5.24378 0 7.98418 0C9.31373 0 10.3154 0.349038 10.3154 0.349038L5.73944 5.78573H2.49732L2.12622 2.74343Z" fill="#1A73E8"/>
<path d="M1.08294 11.3232C1.08294 11.3232 0.326904 9.84268 0.326904 7.69785C0.326904 5.67066 1.11494 3.89865 2.12616 2.74341L5.74197 5.78614L1.08294 11.3232Z" fill="#EA4335"/>
</svg>
