<svg width="63" height="63" viewBox="0 0 63 63" fill="none" xmlns="http://www.w3.org/2000/svg">
<path fill-rule="evenodd" clip-rule="evenodd" d="M44.0619 29.7675L33.0029 18.6243C32.2384 17.8565 31.0007 17.8565 30.2382 18.6243C29.4737 19.3921 29.4737 20.6522 30.2382 21.42L38.2958 29.5312H17.5974C16.5161 29.5312 15.6421 30.4172 15.6421 31.5C15.6421 32.5828 16.5161 33.4688 17.5974 33.4688H38.2958L30.2382 41.58C29.4737 42.3478 29.4737 43.5882 30.2382 44.3757C31.0007 45.1435 32.2384 45.1435 33.0029 44.3757L44.0619 33.2325C44.5312 32.76 44.6778 32.1103 44.5703 31.5C44.6778 30.8897 44.5312 30.24 44.0619 29.7675ZM31.2842 63C14.0056 63 0 48.9038 0 31.5C0 14.0962 14.0056 0 31.2842 0C48.5629 0 62.5685 14.0962 62.5685 31.5C62.5685 48.9038 48.5629 63 31.2842 63Z" fill="#282828"/>
</svg>
